<svg width="100" height="20" viewBox="0 0 100 20" fill="none" xmlns="http://www.w3.org/2000/svg">
<path d="M11.4416 2.92501L12.9083 5.85835C13.1083 6.26668 13.6416 6.65835 14.0916 6.73335L16.7499 7.17501C18.4499 7.45835 18.8499 8.69168 17.6249 9.90835L15.5583 11.975C15.2083 12.325 15.0166 13 15.1249 13.4833L15.7166 16.0417C16.1833 18.0667 15.1083 18.85 13.3166 17.7917L10.8249 16.3167C10.3749 16.05 9.63326 16.05 9.17492 16.3167L6.68326 17.7917C4.89992 18.85 3.81659 18.0583 4.28326 16.0417L4.87492 13.4833C4.98326 13 4.79159 12.325 4.44159 11.975L2.37492 9.90835C1.15826 8.69168 1.54992 7.45835 3.24992 7.17501L5.90826 6.73335C6.34992 6.65835 6.88326 6.26668 7.08326 5.85835L8.54992 2.92501C9.34992 1.33335 10.6499 1.33335 11.4416 2.92501Z" fill="#FFC560"/>
<path d="M31.4416 2.92501L32.9083 5.85835C33.1083 6.26668 33.6416 6.65835 34.0916 6.73335L36.7499 7.17501C38.4499 7.45835 38.8499 8.69168 37.6249 9.90835L35.5583 11.975C35.2083 12.325 35.0166 13 35.1249 13.4833L35.7166 16.0417C36.1833 18.0667 35.1083 18.85 33.3166 17.7917L30.8249 16.3167C30.3749 16.05 29.6333 16.05 29.1749 16.3167L26.6833 17.7917C24.8999 18.85 23.8166 18.0583 24.2833 16.0417L24.8749 13.4833C24.9833 13 24.7916 12.325 24.4416 11.975L22.3749 9.90835C21.1583 8.69168 21.5499 7.45835 23.2499 7.17501L25.9083 6.73335C26.3499 6.65835 26.8833 6.26668 27.0833 5.85835L28.5499 2.92501C29.3499 1.33335 30.6499 1.33335 31.4416 2.92501Z" fill="#FFC560"/>
<path d="M51.4416 2.92501L52.9083 5.85835C53.1083 6.26668 53.6416 6.65835 54.0916 6.73335L56.7499 7.17501C58.4499 7.45835 58.8499 8.69168 57.6249 9.90835L55.5583 11.975C55.2083 12.325 55.0166 13 55.1249 13.4833L55.7166 16.0417C56.1833 18.0667 55.1083 18.85 53.3166 17.7917L50.8249 16.3167C50.3749 16.05 49.6333 16.05 49.1749 16.3167L46.6833 17.7917C44.8999 18.85 43.8166 18.0583 44.2833 16.0417L44.8749 13.4833C44.9833 13 44.7916 12.325 44.4416 11.975L42.3749 9.90835C41.1583 8.69168 41.5499 7.45835 43.2499 7.17501L45.9083 6.73335C46.3499 6.65835 46.8833 6.26668 47.0833 5.85835L48.5499 2.92501C49.3499 1.33335 50.6499 1.33335 51.4416 2.92501Z" fill="#FFC560"/>
<path d="M71.4416 2.92501L72.9083 5.85835C73.1083 6.26668 73.6416 6.65835 74.0916 6.73335L76.7499 7.17501C78.4499 7.45835 78.8499 8.69168 77.6249 9.90835L75.5583 11.975C75.2083 12.325 75.0166 13 75.1249 13.4833L75.7166 16.0417C76.1833 18.0667 75.1083 18.85 73.3166 17.7917L70.8249 16.3167C70.3749 16.05 69.6333 16.05 69.1749 16.3167L66.6833 17.7917C64.8999 18.85 63.8166 18.0583 64.2833 16.0417L64.8749 13.4833C64.9833 13 64.7916 12.325 64.4416 11.975L62.3749 9.90835C61.1583 8.69168 61.5499 7.45835 63.2499 7.17501L65.9083 6.73335C66.3499 6.65835 66.8833 6.26668 67.0833 5.85835L68.5499 2.92501C69.3499 1.33335 70.6499 1.33335 71.4416 2.92501Z" fill="#FFC560"/>
<path d="M91.4416 2.92501L92.9083 5.85835C93.1083 6.26668 93.6416 6.65835 94.0916 6.73335L96.7499 7.17501C98.4499 7.45835 98.8499 8.69168 97.6249 9.90835L95.5583 11.975C95.2083 12.325 95.0166 13 95.1249 13.4833L95.7166 16.0417C96.1833 18.0667 95.1083 18.85 93.3166 17.7917L90.8249 16.3167C90.3749 16.05 89.6333 16.05 89.1749 16.3167L86.6833 17.7917C84.8999 18.85 83.8166 18.0583 84.2833 16.0417L84.8749 13.4833C84.9833 13 84.7916 12.325 84.4416 11.975L82.3749 9.90835C81.1583 8.69168 81.5499 7.45835 83.2499 7.17501L85.9083 6.73335C86.3499 6.65835 86.8833 6.26668 87.0833 5.85835L88.5499 2.92501C89.3499 1.33335 90.6499 1.33335 91.4416 2.92501Z" fill="#F1F1F1"/>
</svg>
