<svg width="16" height="16" viewBox="0 0 16 16" fill="none" xmlns="http://www.w3.org/2000/svg">
<path d="M9.29749 1.63251L10.6175 4.27251C10.7975 4.64001 11.2775 4.99251 11.6825 5.06001L14.075 5.45751C15.605 5.71251 15.965 6.82251 14.8625 7.91751L13.0025 9.77751C12.6875 10.0925 12.515 10.7 12.6125 11.135L13.145 13.4375C13.565 15.26 12.5975 15.965 10.985 15.0125L8.74249 13.685C8.33749 13.445 7.66999 13.445 7.25749 13.685L5.01499 15.0125C3.40999 15.965 2.43499 15.2525 2.85499 13.4375L3.38749 11.135C3.48499 10.7 3.31249 10.0925 2.99749 9.77751L1.13749 7.91751C0.0424927 6.82251 0.394993 5.71251 1.92499 5.45751L4.31749 5.06001C4.71499 4.99251 5.19499 4.64001 5.37499 4.27251L6.69499 1.63251C7.41499 0.200011 8.58499 0.200011 9.29749 1.63251Z" fill="#F54749"/>
</svg>
